<svg width="26" height="26" viewBox="0 0 26 26" fill="none" xmlns="http://www.w3.org/2000/svg">
<path d="M22.75 22.75H3.25V5.41667C3.25 4.225 4.225 3.25 5.41667 3.25H20.5833C21.775 3.25 22.75 4.225 22.75 5.41667V22.75Z" fill="#90CAF9"/>
<path d="M3.25 22.75H22.75V23.8333H3.25V22.75Z" fill="#64B5F6"/>
<path d="M16.7917 14.625H20.0417V17.3334H16.7917V14.625ZM11.375 14.625H14.625V17.3334H11.375V14.625ZM5.95837 14.625H9.20837V17.3334H5.95837V14.625ZM16.7917 18.9584H20.0417V21.6667H16.7917V18.9584ZM5.95837 18.9584H9.20837V21.6667H5.95837V18.9584ZM16.7917 10.2917H20.0417V13H16.7917V10.2917ZM11.375 10.2917H14.625V13H11.375V10.2917ZM5.95837 10.2917H9.20837V13H5.95837V10.2917ZM16.7917 5.95837H20.0417V8.66671H16.7917V5.95837ZM11.375 5.95837H14.625V8.66671H11.375V5.95837ZM5.95837 5.95837H9.20837V8.66671H5.95837V5.95837ZM11.375 18.9584H14.625V23.8334H11.375V18.9584Z" fill="#1565C0"/>
</svg>
