<svg width="24" height="24" viewBox="0 0 24 24" fill="none" xmlns="http://www.w3.org/2000/svg">
<path d="M3.9375 3C3.29103 3 2.67105 3.25681 2.21393 3.71393C1.75681 4.17105 1.5 4.79103 1.5 5.4375V15H1.89375C1.96275 15.6998 2.2245 16.3425 2.625 16.875V18.75H20.0625C20.709 18.75 21.329 18.4932 21.7861 18.0361C22.2432 17.579 22.5 16.959 22.5 16.3125V5.4375C22.5 4.79103 22.2432 4.17105 21.7861 3.71393C21.329 3.25681 20.709 3 20.0625 3H3.9375Z" fill="url(#paint0_linear_379_121)"/>
<path d="M6 8.25C6 8.05109 6.07902 7.86032 6.21967 7.71967C6.36032 7.57902 6.55109 7.5 6.75 7.5H17.25C17.4489 7.5 17.6397 7.57902 17.7803 7.71967C17.921 7.86032 18 8.05109 18 8.25C18 8.44891 17.921 8.63968 17.7803 8.78033C17.6397 8.92098 17.4489 9 17.25 9H6.75C6.55109 9 6.36032 8.92098 6.21967 8.78033C6.07902 8.63968 6 8.44891 6 8.25ZM12.75 12.75C12.5511 12.75 12.3603 12.829 12.2197 12.9697C12.079 13.1103 12 13.3011 12 13.5C12 13.6989 12.079 13.8897 12.2197 14.0303C12.3603 14.171 12.5511 14.25 12.75 14.25H17.25C17.4489 14.25 17.6397 14.171 17.7803 14.0303C17.921 13.8897 18 13.6989 18 13.5C18 13.3011 17.921 13.1103 17.7803 12.9697C17.6397 12.829 17.4489 12.75 17.25 12.75H12.75Z" fill="url(#paint1_linear_379_121)" fill-opacity="0.9"/>
<path d="M9 16.3965C8.0554 17.1917 6.85978 17.6269 5.625 17.625C4.39022 17.6269 3.1946 17.1917 2.25 16.3965V21.75C2.25003 21.8837 2.28581 22.015 2.35363 22.1302C2.42145 22.2454 2.51885 22.3405 2.63573 22.4054C2.75261 22.4703 2.88473 22.5029 3.01841 22.4996C3.15208 22.4963 3.28244 22.4573 3.396 22.3867L5.625 20.9992L7.854 22.3867C7.96761 22.4574 8.09804 22.4963 8.23178 22.4996C8.36552 22.5028 8.49769 22.4703 8.6146 22.4052C8.7315 22.3402 8.82889 22.2451 8.89665 22.1297C8.96442 22.0144 9.0001 21.883 9 21.7492V16.3965Z" fill="url(#paint2_radial_379_121)"/>
<path d="M9.75 14.625C9.75 15.719 9.3154 16.7682 8.54182 17.5418C7.76823 18.3154 6.71902 18.75 5.625 18.75C4.53098 18.75 3.48177 18.3154 2.70818 17.5418C1.9346 16.7682 1.5 15.719 1.5 14.625C1.5 13.531 1.9346 12.4818 2.70818 11.7082C3.48177 10.9346 4.53098 10.5 5.625 10.5C6.71902 10.5 7.76823 10.9346 8.54182 11.7082C9.3154 12.4818 9.75 13.531 9.75 14.625Z" fill="url(#paint3_radial_379_121)"/>
<defs>
<linearGradient id="paint0_linear_379_121" x1="2.25" y1="5.9535" x2="12.5745" y2="20.2552" gradientUnits="userSpaceOnUse">
<stop stop-color="#0FAFFF"/>
<stop offset="1" stop-color="#2764E7"/>
</linearGradient>
<linearGradient id="paint1_linear_379_121" x1="23.4" y1="23.025" x2="15.303" y2="1.32825" gradientUnits="userSpaceOnUse">
<stop stop-color="#9DEAFF"/>
<stop offset="1" stop-color="white"/>
</linearGradient>
<radialGradient id="paint2_radial_379_121" cx="0" cy="0" r="1" gradientUnits="userSpaceOnUse" gradientTransform="translate(5.625 16.5) rotate(90) scale(8.56575 13.2653)">
<stop stop-color="#163697"/>
<stop offset="1" stop-color="#29C3FF"/>
</radialGradient>
<radialGradient id="paint3_radial_379_121" cx="0" cy="0" r="1" gradientUnits="userSpaceOnUse" gradientTransform="translate(-16.3256 -18.3751) rotate(56.615) scale(46.0494 39.4392)">
<stop offset="0.772" stop-color="#FFCD0F"/>
<stop offset="0.991" stop-color="#E67505"/>
</radialGradient>
</defs>
</svg>
