<svg width="75" height="75" viewBox="0 0 75 75" fill="none" xmlns="http://www.w3.org/2000/svg">
<path d="M37.6812 62.5C30.7354 62.5 24.8323 60.0698 19.9719 55.2094C15.1115 50.3489 12.6812 44.4458 12.6812 37.5C12.6812 31.1687 14.7437 25.6792 18.8687 21.0312C22.9937 16.3833 28.1021 13.6396 34.1937 12.8C34.3625 12.8 34.5281 12.8062 34.6906 12.8187C34.8531 12.8312 35.0125 12.8489 35.1687 12.8719C34.1146 14.3427 33.2802 15.9781 32.6656 17.7781C32.051 19.5781 31.7437 21.4646 31.7437 23.4375C31.7437 28.9937 33.6875 33.7156 37.575 37.6031C41.4625 41.4906 46.1854 43.4354 51.7437 43.4375C53.725 43.4375 55.6135 43.1302 57.4094 42.5156C59.2052 41.901 60.8177 41.0667 62.2469 40.0125C62.2719 40.1687 62.2896 40.3281 62.3 40.4906C62.3104 40.6531 62.3167 40.8187 62.3187 40.9875C61.5187 47.0771 58.7948 52.1844 54.1469 56.3094C49.499 60.4344 44.0125 62.4979 37.6812 62.5ZM37.6781 59.375C42.2615 59.375 46.376 58.1114 50.0219 55.5844C53.6677 53.0573 56.3239 49.7635 57.9906 45.7031C56.9489 45.9635 55.9073 46.1719 54.8656 46.3281C53.8239 46.4844 52.7823 46.5625 51.7406 46.5625C45.3364 46.5625 39.8812 44.3104 35.375 39.8062C30.8687 35.3021 28.6167 29.8458 28.6187 23.4375C28.6187 22.3958 28.6969 21.3542 28.8531 20.3125C29.0094 19.2708 29.2177 18.2292 29.4781 17.1875C25.4156 18.8542 22.1208 21.5104 19.5937 25.1562C17.0667 28.8021 15.8042 32.9167 15.8062 37.5C15.8062 43.5417 17.9417 48.6979 22.2125 52.9687C26.4833 57.2396 31.6365 59.375 37.6781 59.375Z" fill="white"/>
</svg>
