<svg width="50" height="50" viewBox="0 0 50 50" fill="none" xmlns="http://www.w3.org/2000/svg">
<path d="M27.0833 18.75H38.5416L27.0833 7.29163V18.75ZM12.4999 4.16663H29.1666L41.6666 16.6666V41.6666C41.6666 42.7717 41.2276 43.8315 40.4462 44.6129C39.6648 45.3943 38.605 45.8333 37.4999 45.8333H12.4999C11.3948 45.8333 10.335 45.3943 9.55364 44.6129C8.77224 43.8315 8.33325 42.7717 8.33325 41.6666V8.33329C8.33325 6.02079 10.1874 4.16663 12.4999 4.16663ZM29.1666 41.6666V39.5833C29.1666 36.8125 23.6041 35.4166 20.8333 35.4166C18.0624 35.4166 12.4999 36.8125 12.4999 39.5833V41.6666H29.1666ZM20.8333 25C19.7282 25 18.6684 25.4389 17.887 26.2204C17.1056 27.0018 16.6666 28.0616 16.6666 29.1666C16.6666 30.2717 17.1056 31.3315 17.887 32.1129C18.6684 32.8943 19.7282 33.3333 20.8333 33.3333C21.9383 33.3333 22.9981 32.8943 23.7795 32.1129C24.5609 31.3315 24.9999 30.2717 24.9999 29.1666C24.9999 28.0616 24.5609 27.0018 23.7795 26.2204C22.9981 25.4389 21.9383 25 20.8333 25Z" fill="white"/>
</svg>
