<svg width="24" height="24" viewBox="0 0 24 24" fill="none" xmlns="http://www.w3.org/2000/svg">
<path d="M22.6667 19.3973C22.3887 18.7553 22.0693 18.0587 21.3333 18.0587H20.6667C21.4027 18.0587 22 17.4593 22 16.72V5.33867C22.0004 5.16322 21.9661 4.98942 21.8993 4.8272C21.8325 4.66497 21.7344 4.5175 21.6106 4.39319C21.4868 4.26888 21.3397 4.17018 21.1777 4.10272C21.0158 4.03525 20.8421 4.00035 20.6667 4H3.33333C2.59733 4 2 4.59933 2 5.33867V16.72C2 17.4593 2.59733 18.0587 3.33333 18.0587H2.66667C1.93067 18.0587 1.55533 18.728 1.33333 19.3973L0 22.6607C0 23.4007 0.597333 24 1.33333 24H22.6667C23.4027 24 24 23.4007 24 22.6613L22.6667 19.3973Z" fill="#CCD6DD"/>
<path d="M0.00537109 22.7167L0.00937109 22.7547L0.122704 23.216C0.228066 23.449 0.398219 23.6468 0.612875 23.7858C0.827532 23.9248 1.07764 23.9992 1.33337 24H22.6667C23.0109 23.9989 23.3413 23.8647 23.5889 23.6255C23.8364 23.3863 23.9818 23.0606 23.9947 22.7167H0.00537109Z" fill="#9AAAB4"/>
<path d="M20.6666 16.05C20.6666 16.42 20.3686 16.7194 19.9999 16.7194H3.99992C3.63192 16.7194 3.33325 16.42 3.33325 16.05V6.00869C3.33325 5.63869 3.63192 5.33936 3.99992 5.33936H19.9999C20.3686 5.33936 20.6666 5.63936 20.6666 6.00869V16.05Z" fill="#5DADEC"/>
<path d="M21.9374 20.6946L21.4307 19.2446C21.2714 18.938 21.0074 18.6866 20.6387 18.6866H3.40674C3.03874 18.6866 2.80274 18.9586 2.63607 19.3773L2.17741 20.6953C2.03141 21.0926 2.47607 21.3646 2.84407 21.3646H7.89607C7.89607 21.3646 8.52074 21.3333 8.63141 20.9593C8.75941 20.5273 8.90807 19.8766 8.94007 19.762C8.98941 19.586 9.19874 19.408 9.51074 19.408H15.2294C15.5627 19.408 15.7267 19.5766 15.7701 19.7853C15.7981 19.9213 15.9781 20.546 16.0621 20.9733C16.1361 21.354 16.8761 21.364 16.8761 21.364H21.2721C21.6394 21.364 22.0834 21.05 21.9374 20.6946Z" fill="#AEBBC1"/>
<path d="M14.9166 22.0753H9.72929C9.47929 22.0753 9.37063 21.8466 9.40663 21.6253C9.44263 21.4046 9.64596 20.43 9.66196 20.3167C9.67729 20.2027 9.84463 20.0667 10.0113 20.0667H14.688C14.886 20.0667 15.0146 20.1753 15.0546 20.3927C15.094 20.6107 15.256 21.4866 15.2686 21.6866C15.2813 21.8866 15.156 22.0753 14.9166 22.0753Z" fill="#9AAAB4"/>
</svg>
