<svg width="24" height="24" viewBox="0 0 24 24" fill="none" xmlns="http://www.w3.org/2000/svg">
<path d="M9.99992 20.6667C9.99992 22.1393 9.47259 23.3333 7.99992 23.3333H3.33325C0.666585 23.3333 0.666585 14 3.33325 14H7.99992C9.47259 14 9.99992 15.194 9.99992 16.6667V20.6667Z" fill="#553788"/>
<path d="M22.6667 22H22.0001V15.3333H22.6667C22.8436 15.3333 23.0131 15.2631 23.1382 15.1381C23.2632 15.013 23.3334 14.8435 23.3334 14.6667C23.3334 14.4899 23.2632 14.3203 23.1382 14.1953C23.0131 14.0702 22.8436 14 22.6667 14H6.66675C4.00008 14 4.00008 23.3333 6.66675 23.3333H22.6667C22.8436 23.3333 23.0131 23.2631 23.1382 23.1381C23.2632 23.013 23.3334 22.8435 23.3334 22.6667C23.3334 22.4899 23.2632 22.3203 23.1382 22.1953C23.0131 22.0702 22.8436 22 22.6667 22Z" fill="#9266CC"/>
<path d="M22.7813 22H7.33325C5.99992 22 5.99992 15.3334 7.33325 15.3334H22.7813C23.5173 15.3334 23.5173 22 22.7813 22Z" fill="#CCD6DD"/>
<path d="M7.66656 16.6667H23.2332C23.1432 15.8834 22.9932 15.3334 22.7812 15.3334H7.33323C6.23256 15.3334 6.04123 19.872 6.7579 21.4587C6.49656 19.486 6.79923 16.6667 7.66656 16.6667Z" fill="#99AAB5"/>
<path d="M8.00008 5.33329C8.00008 6.04054 7.71913 6.71881 7.21903 7.21891C6.71894 7.71901 6.04066 7.99996 5.33341 7.99996H2.66675C8.13603e-05 7.99996 8.13603e-05 0.666626 2.66675 0.666626H5.33341C6.04066 0.666626 6.71894 0.947578 7.21903 1.44767C7.71913 1.94777 8.00008 2.62605 8.00008 3.33329V5.33329Z" fill="#226699"/>
<path d="M20.6667 6.66663H20.0001V1.99996H20.6667C20.8436 1.99996 21.0131 1.92972 21.1382 1.8047C21.2632 1.67967 21.3334 1.5101 21.3334 1.33329C21.3334 1.15648 21.2632 0.986912 21.1382 0.861888C21.0131 0.736864 20.8436 0.666626 20.6667 0.666626H4.66675C2.00008 0.666626 2.00008 7.99996 4.66675 7.99996H20.6667C20.8436 7.99996 21.0131 7.92972 21.1382 7.8047C21.2632 7.67967 21.3334 7.5101 21.3334 7.33329C21.3334 7.15648 21.2632 6.98691 21.1382 6.86189C21.0131 6.73686 20.8436 6.66663 20.6667 6.66663Z" fill="#55ACEE"/>
<path d="M20.7813 6.66667H5.33325C3.99992 6.66667 3.99992 2 5.33325 2H20.7813C21.5173 2 21.5173 6.66667 20.7813 6.66667Z" fill="#CCD6DD"/>
<path d="M5.33329 3.33333H21.2833C21.2073 2.58333 21.0406 2 20.7813 2H5.33329C4.53796 2 4.22062 3.65933 4.37462 5C4.47862 4.09467 4.79529 3.33333 5.33329 3.33333Z" fill="#99AAB5"/>
<path d="M13.3333 11.3333C13.3333 12.0406 13.0524 12.7189 12.5523 13.219C12.0522 13.719 11.3739 14 10.6667 14H4C1.33333 14 1.33333 8 4 8H10.6667C11.3739 8 12.0522 8.28095 12.5523 8.78105C13.0524 9.28115 13.3333 9.95942 13.3333 10.6667V11.3333Z" fill="#F4900C"/>
<path d="M23.3333 12.6667H22.6667V9.33333H23.3333C23.5101 9.33333 23.6797 9.2631 23.8047 9.13807C23.9298 9.01305 24 8.84348 24 8.66667C24 8.48986 23.9298 8.32029 23.8047 8.19526C23.6797 8.07024 23.5101 8 23.3333 8H10C7.33333 8 7.33333 14 10 14H23.3333C23.5101 14 23.6797 13.9298 23.8047 13.8047C23.9298 13.6797 24 13.5101 24 13.3333C24 13.1565 23.9298 12.987 23.8047 12.8619C23.6797 12.7369 23.5101 12.6667 23.3333 12.6667Z" fill="#FFAC33"/>
<path d="M23.4481 12.6667H10.6667C9.33341 12.6667 9.33341 9.33337 10.6667 9.33337H23.4481C24.1841 9.33337 24.1841 12.6667 23.4481 12.6667Z" fill="#CCD6DD"/>
<path d="M10.6666 10.6667H23.9893C23.946 9.95871 23.7666 9.33337 23.448 9.33337H10.6666C9.81728 9.33337 9.51128 10.6847 9.74462 11.6667C9.87662 11.1074 10.1826 10.6667 10.6666 10.6667Z" fill="#99AAB5"/>
</svg>
