<svg width="24" height="24" viewBox="0 0 24 24" fill="none" xmlns="http://www.w3.org/2000/svg">
<path d="M23.3333 24V20.6666C23.3333 19.6058 22.9119 18.5883 22.1617 17.8382C21.4116 17.0881 20.3942 16.6666 19.3333 16.6666H8.66663C7.60576 16.6666 6.58834 17.0881 5.8382 17.8382C5.08805 18.5883 4.66663 19.6058 4.66663 20.6666V24H23.3333Z" fill="#FA743E"/>
<path d="M11.0933 16.7374C11.0933 17.3334 12.6667 18.066 14 18.066C15.3333 18.066 16.906 17.3334 16.906 16.738V14.1934H11.0927L11.0933 16.7374Z" fill="#FFDC5D"/>
<path d="M11.0879 15.414C11.8986 16.33 12.9039 16.578 13.9973 16.578C15.0906 16.578 16.0946 16.3293 16.9059 15.414V13.0867H11.0873L11.0879 15.414Z" fill="#F9CA55"/>
<path d="M16.4873 0.353991C15.204 -0.0613424 12.184 0.0519909 11.4286 1.03332C9.46597 1.07132 7.1633 2.84532 6.8613 5.18532C6.56263 7.50199 7.22863 8.57732 7.4653 10.3193C7.73397 12.2927 8.8433 12.924 9.72997 13.188C11.006 14.874 12.3626 14.802 14.6406 14.802C19.0886 14.802 21.2073 11.826 21.3946 6.77066C21.508 3.71399 19.714 1.39799 16.4873 0.353991Z" fill="#FFAC33"/>
<path d="M19.0313 6.98738C18.6007 6.39138 18.05 5.91138 16.842 5.74205C17.2953 5.94938 17.7293 6.66671 17.786 7.06338C17.8427 7.46005 17.8993 7.78071 17.5407 7.38405C16.104 5.79605 14.5393 6.42138 12.9893 5.45138C11.9067 4.77405 11.5767 4.02405 11.5767 4.02405C11.5767 4.02405 11.4447 5.02405 9.80268 6.04338C9.32668 6.33871 8.75868 6.99671 8.44401 7.96871C8.21734 8.66738 8.28801 9.29005 8.28801 10.354C8.28801 13.4607 10.8487 16.0727 14.0067 16.0727C17.1647 16.0727 19.7253 13.4374 19.7253 10.354C19.724 8.42205 19.522 7.66671 19.0313 6.98738Z" fill="#FFDC5D"/>
<path d="M14.6407 11.9426H13.37C13.2857 11.9426 13.2048 11.9091 13.1451 11.8495C13.0855 11.7899 13.052 11.709 13.052 11.6246C13.052 11.5403 13.0855 11.4594 13.1451 11.3998C13.2048 11.3401 13.2857 11.3066 13.37 11.3066H14.6407C14.725 11.3066 14.8059 11.3401 14.8655 11.3998C14.9252 11.4594 14.9587 11.5403 14.9587 11.6246C14.9587 11.709 14.9252 11.7899 14.8655 11.8495C14.8059 11.9091 14.725 11.9426 14.6407 11.9426Z" fill="#C1694F"/>
<path d="M11.4633 9.71862C11.2948 9.71862 11.1332 9.65169 11.0141 9.53254C10.8949 9.41339 10.828 9.25179 10.828 9.08329V8.44796C10.828 8.27945 10.8949 8.11785 11.0141 7.99871C11.1332 7.87956 11.2948 7.81262 11.4633 7.81262C11.6318 7.81262 11.7934 7.87956 11.9126 7.99871C12.0317 8.11785 12.0987 8.27945 12.0987 8.44796V9.08329C12.0989 9.1668 12.0827 9.24953 12.0508 9.32673C12.019 9.40393 11.9722 9.47408 11.9132 9.53313C11.8541 9.59218 11.784 9.63896 11.7068 9.6708C11.6296 9.70263 11.5468 9.71889 11.4633 9.71862ZM16.5473 9.71862C16.3788 9.71862 16.2172 9.65169 16.0981 9.53254C15.9789 9.41339 15.912 9.25179 15.912 9.08329V8.44796C15.912 8.27945 15.9789 8.11785 16.0981 7.99871C16.2172 7.87956 16.3788 7.81262 16.5473 7.81262C16.7158 7.81262 16.8774 7.87956 16.9966 7.99871C17.1157 8.11785 17.1827 8.27945 17.1827 8.44796V9.08329C17.1827 9.25179 17.1157 9.41339 16.9966 9.53254C16.8774 9.65169 16.7158 9.71862 16.5473 9.71862Z" fill="#662113"/>
<path d="M14.0894 14.596C12.2534 14.596 11.6894 14.126 11.5954 14.0306C11.5114 13.9509 11.4625 13.841 11.4595 13.7253C11.4565 13.6095 11.4996 13.4973 11.5794 13.4133C11.6591 13.3293 11.7689 13.2804 11.8847 13.2774C12.0005 13.2744 12.1127 13.3175 12.1967 13.3973C12.2314 13.422 12.6774 13.722 14.0894 13.722C15.556 13.722 15.98 13.3986 15.984 13.3953C16.0244 13.3555 16.0723 13.3242 16.1249 13.3031C16.1775 13.2821 16.2338 13.2717 16.2904 13.2726C16.3471 13.2736 16.403 13.2858 16.4549 13.3086C16.5068 13.3313 16.5536 13.3642 16.5927 13.4053C16.6733 13.49 16.7175 13.6029 16.7157 13.7199C16.714 13.8368 16.6665 13.9484 16.5834 14.0306C16.4887 14.126 15.9254 14.596 14.0894 14.596Z" fill="#C1694F"/>
<path d="M22 23.3333C22 23.5101 21.9298 23.6797 21.8047 23.8047C21.6797 23.9297 21.5101 24 21.3333 24H14.6667C14.4899 24 14.3203 23.9297 14.1953 23.8047C14.0702 23.6797 14 23.5101 14 23.3333C14 23.1565 14.0702 22.9869 14.1953 22.8619C14.3203 22.7369 14.4899 22.6666 14.6667 22.6666H21.3333C21.5101 22.6666 21.6797 22.7369 21.8047 22.8619C21.9298 22.9869 22 23.1565 22 23.3333Z" fill="#E1E8ED"/>
<path d="M13.4933 14.6666H2.50595C1.48995 14.6666 0.187281 15.1806 0.853948 17.0206L2.90195 22.6706C2.90261 22.6706 3.16661 24 4.66661 24H17.9999L15.3333 16.5066C15.0413 15.6253 14.5099 14.6666 13.4933 14.6666Z" fill="#E1E8ED"/>
<path d="M12.8267 14.6666H1.83932C0.823322 14.6666 -0.479345 15.1806 0.187322 17.0206L2.23532 22.6706C2.23599 22.6706 2.49999 24 3.99999 24H17.3333L14.6667 16.5066C14.3747 15.6253 13.8433 14.6666 12.8267 14.6666Z" fill="#99AAB5"/>
<path d="M9.346 19.522C9.69533 20.57 9.412 21.6087 8.71333 21.8413C8.01467 22.074 7.16533 21.414 6.816 20.366C6.46667 19.318 6.75 18.2793 7.44867 18.0467C8.14733 17.814 8.99733 18.474 9.346 19.522ZM12.6667 16.5H2C1.86739 16.5 1.74021 16.4473 1.64645 16.3536C1.55268 16.2598 1.5 16.1326 1.5 16C1.5 15.8674 1.55268 15.7402 1.64645 15.6464C1.74021 15.5527 1.86739 15.5 2 15.5H12.6667C12.7993 15.5 12.9265 15.5527 13.0202 15.6464C13.114 15.7402 13.1667 15.8674 13.1667 16C13.1667 16.1326 13.114 16.2598 13.0202 16.3536C12.9265 16.4473 12.7993 16.5 12.6667 16.5Z" fill="#E1E8ED"/>
</svg>
