<svg width="24" height="24" viewBox="0 0 24 24" fill="none" xmlns="http://www.w3.org/2000/svg">
<path d="M24 14.6667C24 15.3739 23.719 16.0522 23.219 16.5523C22.7189 17.0524 22.0406 17.3333 21.3333 17.3333H2.66667C1.95942 17.3333 1.28115 17.0524 0.781049 16.5523C0.280952 16.0522 0 15.3739 0 14.6667V2.66667C0 1.95942 0.280952 1.28115 0.781049 0.781049C1.28115 0.280952 1.95942 0 2.66667 0L21.3333 0C22.0406 0 22.7189 0.280952 23.219 0.781049C23.719 1.28115 24 1.95942 24 2.66667V14.6667Z" fill="#CCD6DD"/>
<path d="M2.66675 2.66663H21.3334V14.6666H2.66675V2.66663Z" fill="#5DADEC"/>
<path d="M8.66675 17.3334H15.3334V21.3334H8.66675V17.3334Z" fill="#CCD6DD"/>
<path d="M8.66675 17.3334H15.3334V18.6667H8.66675V17.3334Z" fill="#9AAAB4"/>
<path d="M24 22C24 21.4696 23.7893 20.9609 23.4142 20.5858C23.0391 20.2107 22.5304 20 22 20H2C1.46957 20 0.960859 20.2107 0.585786 20.5858C0.210714 20.9609 0 21.4696 0 22C0 22.5304 0.210714 23.0391 0.585786 23.4142C0.960859 23.7893 1.46957 24 2 24H22C22.5304 24 23.0391 23.7893 23.4142 23.4142C23.7893 23.0391 24 22.5304 24 22Z" fill="#E1E8ED"/>
<path d="M2 21.3334H3.33333V22.6667H2V21.3334ZM4.66667 21.3334H6V22.6667H4.66667V21.3334ZM7.33333 21.3334H8.66667V22.6667H7.33333V21.3334ZM10 21.3334H11.3333V22.6667H10V21.3334ZM12.6667 21.3334H14V22.6667H12.6667V21.3334ZM15.3333 21.3334H16.6667V22.6667H15.3333V21.3334ZM18 21.3334H19.3333V22.6667H18V21.3334ZM20.6667 21.3334H22V22.6667H20.6667V21.3334Z" fill="#F5F8FA"/>
</svg>
