<svg width="24" height="24" viewBox="0 0 24 24" fill="none" xmlns="http://www.w3.org/2000/svg">
<path d="M18.318 18.1351H19.758C20.688 18.1351 21.738 19.2968 21.738 20.2268C21.738 21.1568 20.9655 22.5233 19.4528 22.5233H10.6875C6.28125 22.5233 1.5 21.0473 1.5 15.2348C1.5 12.3518 2.883 9.30456 5.27325 7.96881L5.57925 7.79856C7.6545 6.64206 9.41475 5.66106 10.641 3.51606C11.211 2.52606 12.4433 0.762059 14.3558 1.86306C15.3458 2.43306 15.8175 4.06656 14.7067 5.55456C13.9012 6.63456 13.7715 6.78456 13.7078 6.95856C13.6838 7.02381 13.6695 7.09356 13.632 7.21731V7.26006H16.1603C18.0225 7.26006 18.75 8.10756 18.75 9.34731C18.75 10.1416 18.4612 10.8398 17.7562 11.2373C18.4537 11.5898 18.75 12.2176 18.75 13.0036C18.75 13.8136 18.447 14.5373 17.703 14.9386C18.4395 15.2851 18.75 15.9248 18.75 16.7303C18.75 17.2628 18.6187 17.7518 18.318 18.1351Z" fill="#FFC83D"/>
<path d="M12.2137 7.63504C11.2027 7.83004 9.74994 8.39329 9.74994 9.77254C9.74994 9.84204 9.75194 9.90904 9.75594 9.97354H9.75219V9.98254C9.75369 9.99004 9.75469 10.0018 9.75519 10.0178C9.75819 10.0493 9.76094 10.0968 9.76344 10.1603C9.76944 10.2863 9.77394 10.4715 9.76944 10.7048C9.75493 11.3311 9.6844 11.9548 9.55869 12.5685C9.25269 14.058 8.53194 15.888 6.87969 17.3175C6.84092 17.3493 6.80889 17.3885 6.78551 17.4328C6.76213 17.4771 6.74787 17.5257 6.74357 17.5756C6.73927 17.6255 6.74502 17.6758 6.76048 17.7235C6.77594 17.7711 6.8008 17.8152 6.83358 17.8531C6.86637 17.891 6.90641 17.9219 6.95135 17.9441C6.9963 17.9663 7.04523 17.9792 7.09525 17.9821C7.14527 17.985 7.19538 17.9779 7.2426 17.9612C7.28982 17.9444 7.33321 17.9184 7.37019 17.8845C8.66769 16.7618 9.43644 15.4193 9.88869 14.163C10.0199 14.5508 10.2389 14.8508 10.5232 14.9408C10.2029 15.0503 9.74994 15.777 9.74994 17.0145C9.74994 18.9128 11.3024 19.5023 12.9022 19.5105H17.1779C17.8034 19.5105 18.3982 19.2368 18.8039 18.7605C19.4129 18.7605 20.8724 18.864 21.6299 19.6733C21.3389 18.8918 20.5087 18.1343 19.7579 18.1343H18.3179C17.9219 18.6383 17.2319 18.96 16.1602 18.96H13.6522C11.8597 18.96 11.2619 17.9618 11.2619 16.7295C11.2619 16.3598 11.3519 16.0245 11.5147 15.7373H18.5422C18.3818 15.4147 18.1224 15.1519 17.8019 14.9873H12.2797L12.2872 14.9828C11.5402 14.5928 11.2619 13.8443 11.2619 13.0028C11.2619 12.6428 11.3467 12.3165 11.5019 12.0345H18.5542C18.4023 11.7163 18.1541 11.4539 17.8447 11.2845H12.2392L12.2692 11.2665C11.5807 10.8735 11.2619 10.161 11.2619 9.34654C11.2619 8.60104 11.6219 7.99654 12.2137 7.63354" fill="#D67D00"/>
</svg>
